HIERARCHY
ROOT Hips
{
	OFFSET -0.001795 -0.223333 0.028219
	CHANNELS 6 Xposition Yposition Zposition Zrotation Yrotation Xrotation 
	JOINT LeftUpLeg
	{
		OFFSET 0.069520 -0.091406 -0.006815
		CHANNELS 3 Zrotation Yrotation Xrotation
		JOINT LeftLeg
		{
			OFFSET 0.034277 -0.375199 -0.004496
			CHANNELS 3 Zrotation Yrotation Xrotation
			JOINT LeftFoot
			{
				OFFSET -0.013596 -0.397961 -0.043693
				CHANNELS 3 Zrotation Yrotation Xrotation
				JOINT LeftToe
				{
					OFFSET 0.026358 -0.055791 0.119288
					CHANNELS 3 Zrotation Yrotation Xrotation
					End Site
					{
						OFFSET 0.000000 0.000000 0.000000
					}
				}
			}
		}
	}
	JOINT RightUpLeg
	{
		OFFSET -0.067670 -0.090522 -0.004320
		CHANNELS 3 Zrotation Yrotation Xrotation
		JOINT RightLeg
		{
			OFFSET -0.038290 -0.382569 -0.008850
			CHANNELS 3 Zrotation Yrotation Xrotation
			JOINT RightFoot
			{
				OFFSET 0.015774 -0.398415 -0.042312
				CHANNELS 3 Zrotation Yrotation Xrotation
				JOINT RightToe
				{
					OFFSET -0.025372 -0.048144 0.123348
					CHANNELS 3 Zrotation Yrotation Xrotation
					End Site
					{
						OFFSET 0.000000 0.000000 0.000000
					}
				}
			}
		}
	}
	JOINT Spine
	{
		OFFSET -0.002533 0.108963 -0.026696
		CHANNELS 3 Zrotation Yrotation Xrotation
		JOINT Spine1
		{
			OFFSET 0.005487 0.135180 0.001092
			CHANNELS 3 Zrotation Yrotation Xrotation
			JOINT Spine2
			{
				OFFSET 0.001457 0.052922 0.025425
				CHANNELS 3 Zrotation Yrotation Xrotation
				JOINT Neck
				{
					OFFSET -0.002778 0.213870 -0.042857
					CHANNELS 3 Zrotation Yrotation Xrotation
					JOINT Head
					{
						OFFSET 0.005152 0.064970 0.051349
						CHANNELS 3 Zrotation Yrotation Xrotation
						End Site
						{
							OFFSET 0.000000 0.000000 0.000000
						}
					}
				}
				JOINT LeftShoulder
				{
					OFFSET 0.078845 0.121749 -0.034090
					CHANNELS 3 Zrotation Yrotation Xrotation
					JOINT LeftArm
					{
						OFFSET 0.090977 0.030469 -0.008868
						CHANNELS 3 Zrotation Yrotation Xrotation
						JOINT LeftForeArm
						{
							OFFSET 0.259612 -0.012772 -0.027456
							CHANNELS 3 Zrotation Yrotation Xrotation
							JOINT LeftHand
							{
								OFFSET 0.249234 0.008986 -0.001171
								CHANNELS 3 Zrotation Yrotation Xrotation
								End Site
								{
									OFFSET 0.000000 0.000000 0.000000
								}
							}
						}
					}
				}
				JOINT RightShoulder
				{
					OFFSET -0.081759 0.118833 -0.038615
					CHANNELS 3 Zrotation Yrotation Xrotation
					JOINT RightArm
					{
						OFFSET -0.096012 0.032551 -0.009143
						CHANNELS 3 Zrotation Yrotation Xrotation
						JOINT RightForeArm
						{
							OFFSET -0.253742 -0.013329 -0.021401
							CHANNELS 3 Zrotation Yrotation Xrotation
							JOINT RightHand
							{
								OFFSET -0.255298 0.007772 -0.005559
								CHANNELS 3 Zrotation Yrotation Xrotation
								End Site
								{
									OFFSET 0.000000 0.000000 0.000000
								}
							}
						}
					}
				}
			}
		}
	}
}
MOTION
Frames: 5
Frame Time: 0.050000
-0.043203 0.765395 0.236352 -1.978458 2.301513 -1.112943 9.917600 -0.806833 -43.598602 -11.846095 7.164700 78.263987 9.708828 19.691128 -9.496220 0.000000 0.000000 0.000000 -1.619213 3.703477 -46.247400 6.763973 -4.090091 79.094434 -9.683834 -24.001268 -6.420858 0.000000 0.000000 0.000000 -3.219951 -0.880782 39.153526 7.805990 -0.983648 -27.061864 -0.171411 3.856189 24.790930 0.834816 2.053109 -27.979748 0.000000 0.000000 0.000000 -27.971846 -8.779445 1.914569 -43.176130 -10.499746 -3.010430 -9.587026 -34.517062 4.329284 0.000000 0.000000 0.000000 18.919353 13.073784 7.354305 48.234504 15.155867 -1.263408 3.687687 36.895968 3.164750 0.000000 0.000000 0.000000 
-0.045397 0.710138 0.227485 -2.239875 2.095044 -2.221146 11.414553 -0.254192 -49.105520 -12.716015 9.418881 86.844432 10.634476 22.021561 -10.957508 0.000000 0.000000 0.000000 -2.663964 3.675988 -51.412688 8.604579 -6.780357 88.735980 -10.019356 -25.566331 -11.200050 0.000000 0.000000 0.000000 -2.868141 -1.135866 43.228996 7.053317 -0.797481 -27.506128 0.371627 4.762876 24.814601 1.038693 2.130701 -29.046850 0.000000 0.000000 0.000000 -27.372607 -11.049679 3.115707 -41.840687 -12.955275 -2.085297 -8.010796 -36.637687 4.015541 0.000000 0.000000 0.000000 18.542220 15.428469 8.697500 46.411631 16.784772 -0.687006 -0.132266 38.019533 1.997241 0.000000 0.000000 0.000000 
-0.047962 0.648672 0.220564 -2.527598 1.857310 -4.397483 12.079624 0.069771 -54.310015 -12.328738 10.895057 97.390468 11.674993 24.755236 -12.031427 0.000000 0.000000 0.000000 -3.313217 3.726974 -55.949634 10.048285 -9.665360 97.750692 -10.990094 -29.285411 -13.977673 0.000000 0.000000 0.000000 -3.507428 -0.993014 47.567284 7.017526 -0.760112 -28.271919 1.334288 5.624078 25.412613 1.101380 2.234911 -29.142277 0.000000 0.000000 0.000000 -27.222998 -13.294546 4.289571 -39.744185 -15.563115 -1.191424 -4.994544 -37.854245 3.038632 0.000000 0.000000 0.000000 18.168592 16.958016 9.534769 43.099288 18.711767 -0.207366 -2.121070 38.691572 1.312489 0.000000 0.000000 0.000000 
-0.050971 0.583179 0.215168 -2.913996 1.715383 -6.420651 13.164691 0.666893 -59.735867 -11.352141 11.980990 108.989523 11.248329 24.134769 -15.377518 0.000000 0.000000 0.000000 -3.822869 3.778011 -60.414326 10.949644 -12.907960 107.939328 -10.877146 -30.988458 -19.519571 0.000000 0.000000 0.000000 -3.520868 -1.094300 51.210577 7.266456 -0.885207 -27.837449 1.431861 6.551044 25.171221 0.872228 2.583603 -30.240863 0.000000 0.000000 0.000000 -28.248712 -14.642454 4.770815 -36.177545 -17.855086 -0.371769 -2.789987 -38.389792 2.188796 0.000000 0.000000 0.000000 17.515436 19.074077 10.595526 40.426924 20.213061 0.178746 -5.665688 39.355682 0.084830 0.000000 0.000000 0.000000 
-0.054480 0.528284 0.212157 -3.054243 1.603620 -8.719335 13.631489 0.989023 -64.209829 -10.682060 13.412342 118.652611 11.848966 25.945763 -15.374450 0.000000 0.000000 0.000000 -4.322602 3.804841 -65.043877 12.022148 -17.238027 116.609368 -11.881378 -34.803544 -18.657690 0.000000 0.000000 0.000000 -4.133245 -0.899609 55.001331 7.035017 -0.794866 -28.755688 2.460568 7.522800 25.369243 0.866571 2.748582 -30.005421 0.000000 0.000000 0.000000 -28.465677 -17.280298 6.105226 -34.835451 -18.895842 -0.018014 -0.636770 -38.002001 1.338752 0.000000 0.000000 0.000000 16.896752 20.658796 11.331173 37.878637 20.962611 0.234546 -6.830311 39.639361 -0.387466 0.000000 0.000000 0.000000 
